<svg width="11" height="10" viewBox="0 0 11 10" fill="none" xmlns="http://www.w3.org/2000/svg">
<path fill-rule="evenodd" clip-rule="evenodd" d="M5.73989 9.2215C5.73989 9.2215 5.56888 9.31464 5.4567 9.2215C5.34453 9.112 4.9178 8.68253 4.9178 8.68253C4.15065 7.98776 1.36435 4.96625 1.20513 4.56821C1.04592 4.17016 0.966309 3.76127 0.966309 3.34151C0.966309 2.63227 1.20875 2.03159 1.69364 1.53946C2.17853 1.04733 2.78283 0.80127 3.50655 0.80127C4.34606 0.80127 4.88496 1.62563 5.59085 2.24146C6.26096 1.71762 6.83564 0.80127 7.67515 0.80127C8.39887 0.80127 9.00317 1.04733 9.48806 1.53946C9.97295 2.03159 10.2154 2.63227 10.2154 3.34151C10.2154 3.90601 10.0272 4.49222 9.65089 5.10014C9.27456 5.70806 7.26264 7.80683 6.26391 8.70424L5.73989 9.2215Z" fill="#33AB78"/>
</svg>
