<svg width="10" height="12" viewBox="0 0 10 12" fill="none" xmlns="http://www.w3.org/2000/svg">
<path opacity="0.6" fill-rule="evenodd" clip-rule="evenodd" d="M8.53961 5.67178C8.75018 5.67178 8.92901 5.74179 9.07639 5.88192C9.22379 6.02205 9.29768 6.19221 9.29757 6.39234V10.716C9.29757 10.9161 9.22379 11.0864 9.07658 11.2265C8.92918 11.3666 8.75037 11.4366 8.5398 11.4366H0.96277C0.752365 11.4366 0.573419 11.3665 0.426072 11.2265C0.278752 11.0864 0.205078 10.9161 0.205078 10.716V6.39241C0.205078 6.19213 0.278724 6.02195 0.426072 5.88192C0.573419 5.74179 0.752365 5.67178 0.96277 5.67178H1.21531V4.23048C1.21531 3.30969 1.5625 2.51912 2.25711 1.85853C2.9516 1.19797 3.78299 0.867676 4.75129 0.867676C5.7196 0.867676 6.55083 1.19797 7.24538 1.85856C7.93999 2.51912 8.28718 3.30972 8.28718 4.23048V5.67178H8.53961ZM2.73074 5.67178H6.77182V4.23048C6.77182 3.70006 6.57449 3.24712 6.17997 2.87189C5.78525 2.49656 5.30921 2.30897 4.75136 2.30897C4.19357 2.30897 3.71741 2.49659 3.32272 2.87189C2.92809 3.24714 2.73074 3.70006 2.73074 4.23048V5.67178Z" fill="white"/>
</svg>
